<svg xmlns="http://www.w3.org/2000/svg" viewBox="0 0 512 512" style="width:256px;height:256px"><path d="M439.114 69.747s2.977 2.1-43.339-11.966c-41.52-12.604-80.795-15.309-80.795-15.309l-2.722-19.297C310.387 9.857 299.484 0 286.642 0H225.34c-12.825 0-23.729 9.857-25.616 23.175l-2.722 19.297s-39.258 2.705-80.778 15.309C69.891 71.848 72.868 69.747 72.868 69.747c-10.324 2.849-17.536 12.655-17.536 23.864v16.695h401.337V93.611c0-11.209-7.213-21.015-17.555-23.864zM88.593 464.731C90.957 491.486 113.367 512 140.234 512h231.524c26.857 0 49.276-20.514 51.64-47.269l25.642-327.21H62.952l25.641 327.21zm253.423-254.827c.51-8.402 7.731-14.807 16.134-14.296 8.402.51 14.798 7.731 14.296 16.134l-14.492 239.493c-.51 8.402-7.731 14.798-16.133 14.288-8.403-.51-14.806-7.722-14.296-16.125l14.491-239.494zm-101.265.919c0-8.42 6.821-15.241 15.24-15.241 8.42 0 15.24 6.821 15.24 15.241v239.492c0 8.42-6.821 15.24-15.24 15.24-8.42 0-15.24-6.821-15.24-15.24V210.823zm-86.918-15.215c8.403-.51 15.624 5.894 16.134 14.296l14.509 239.492c.51 8.403-5.894 15.615-14.296 16.125-8.403.51-15.624-5.886-16.134-14.288L139.537 211.74c-.511-8.401 5.893-15.622 14.296-16.132z" fill="#4b4b4b"/></svg>