<svg xmlns="http://www.w3.org/2000/svg" viewBox="0 0 48 48"><path d="M34.6 5C31 5 27.1 6.4 23.8 9.2 20.6 6.4 16.7 5 13 5c-1.2 0-2.3.1-3.4.4C4.1 7 .5 11.5.5 17.3c0 6.5 2.7 12 18.4 25.3 2.6 2.1 4.9 3.8 4.9 3.8s2.3-1.7 4.9-3.8c15.7-13.2 18.4-18.7 18.4-25.3 0-5.8-3.5-10.4-9.1-11.9-1.1-.3-2.2-.4-3.4-.4zM13 9.1c2.7 0 5.7 1.2 8.1 3.2l2.7 2.3 2.7-2.3c2.4-2.1 5.4-3.2 8.1-3.2.8 0 1.6.1 2.3.3 3.8 1 6.1 4 6.1 7.9 0 4.4-1.2 8.9-17 22.1-.8.7-1.5 1.3-2.2 1.8-.7-.5-1.4-1.1-2.2-1.8-15.7-13.2-17-17.6-17-22.1 0-3.9 2.3-6.9 6.1-7.9.8-.2 1.5-.3 2.3-.3z" fill-rule="evenodd" clip-rule="evenodd"/></svg>